<svg width="11" height="10" viewBox="0 0 11 10" fill="none" xmlns="http://www.w3.org/2000/svg">
<path d="M3.02665 4.14449C2.42267 3.57748 1.4734 3.60746 0.90639 4.21144C0.339385 4.81543 0.369362 5.7647 0.973346 6.3317L3.02665 4.14449ZM4.94203 8L3.91537 9.09361C4.2357 9.39432 4.67176 9.53948 5.10841 9.49074C5.54506 9.44201 5.93839 9.20428 6.18454 8.84034L4.94203 8ZM10.2425 2.84034C10.7066 2.15413 10.5266 1.2216 9.84034 0.757493C9.15413 0.293384 8.2216 0.473439 7.75749 1.15966L10.2425 2.84034ZM0.973346 6.3317L3.91537 9.09361L5.96868 6.90639L3.02665 4.14449L0.973346 6.3317ZM6.18454 8.84034L10.2425 2.84034L7.75749 1.15966L3.69952 7.15966L6.18454 8.84034Z" fill="#4A84FC"/>
</svg>
