<?xml version="1.0" encoding="utf-8"?>
<svg xmlns="http://www.w3.org/2000/svg" xmlns:xlink="http://www.w3.org/1999/xlink" style="margin: auto; background: none; display: block; shape-rendering: auto;" width="257px" height="257px" viewBox="0 0 100 100" preserveAspectRatio="xMidYMid">
<g transform="rotate(0 50 50)">
  <rect x="47.5" y="32.5" rx="2.5" ry="0.5" width="5" height="1" fill="#cacaca">
    <animate attributeName="opacity" values="1;0" keyTimes="0;1" dur="0.5076142131979695s" begin="-0.47775455359808894s" repeatCount="indefinite"></animate>
  </rect>
</g><g transform="rotate(21.176470588235293 50 50)">
  <rect x="47.5" y="32.5" rx="2.5" ry="0.5" width="5" height="1" fill="#cacaca">
    <animate attributeName="opacity" values="1;0" keyTimes="0;1" dur="0.5076142131979695s" begin="-0.4478948939982084s" repeatCount="indefinite"></animate>
  </rect>
</g><g transform="rotate(42.35294117647059 50 50)">
  <rect x="47.5" y="32.5" rx="2.5" ry="0.5" width="5" height="1" fill="#cacaca">
    <animate attributeName="opacity" values="1;0" keyTimes="0;1" dur="0.5076142131979695s" begin="-0.41803523439832785s" repeatCount="indefinite"></animate>
  </rect>
</g><g transform="rotate(63.529411764705884 50 50)">
  <rect x="47.5" y="32.5" rx="2.5" ry="0.5" width="5" height="1" fill="#cacaca">
    <animate attributeName="opacity" values="1;0" keyTimes="0;1" dur="0.5076142131979695s" begin="-0.3881755747984473s" repeatCount="indefinite"></animate>
  </rect>
</g><g transform="rotate(84.70588235294117 50 50)">
  <rect x="47.5" y="32.5" rx="2.5" ry="0.5" width="5" height="1" fill="#cacaca">
    <animate attributeName="opacity" values="1;0" keyTimes="0;1" dur="0.5076142131979695s" begin="-0.3583159151985667s" repeatCount="indefinite"></animate>
  </rect>
</g><g transform="rotate(105.88235294117646 50 50)">
  <rect x="47.5" y="32.5" rx="2.5" ry="0.5" width="5" height="1" fill="#cacaca">
    <animate attributeName="opacity" values="1;0" keyTimes="0;1" dur="0.5076142131979695s" begin="-0.32845625559868613s" repeatCount="indefinite"></animate>
  </rect>
</g><g transform="rotate(127.05882352941177 50 50)">
  <rect x="47.5" y="32.5" rx="2.5" ry="0.5" width="5" height="1" fill="#cacaca">
    <animate attributeName="opacity" values="1;0" keyTimes="0;1" dur="0.5076142131979695s" begin="-0.2985965959988056s" repeatCount="indefinite"></animate>
  </rect>
</g><g transform="rotate(148.23529411764707 50 50)">
  <rect x="47.5" y="32.5" rx="2.5" ry="0.5" width="5" height="1" fill="#cacaca">
    <animate attributeName="opacity" values="1;0" keyTimes="0;1" dur="0.5076142131979695s" begin="-0.26873693639892504s" repeatCount="indefinite"></animate>
  </rect>
</g><g transform="rotate(169.41176470588235 50 50)">
  <rect x="47.5" y="32.5" rx="2.5" ry="0.5" width="5" height="1" fill="#cacaca">
    <animate attributeName="opacity" values="1;0" keyTimes="0;1" dur="0.5076142131979695s" begin="-0.23887727679904447s" repeatCount="indefinite"></animate>
  </rect>
</g><g transform="rotate(190.58823529411765 50 50)">
  <rect x="47.5" y="32.5" rx="2.5" ry="0.5" width="5" height="1" fill="#cacaca">
    <animate attributeName="opacity" values="1;0" keyTimes="0;1" dur="0.5076142131979695s" begin="-0.20901761719916392s" repeatCount="indefinite"></animate>
  </rect>
</g><g transform="rotate(211.76470588235293 50 50)">
  <rect x="47.5" y="32.5" rx="2.5" ry="0.5" width="5" height="1" fill="#cacaca">
    <animate attributeName="opacity" values="1;0" keyTimes="0;1" dur="0.5076142131979695s" begin="-0.17915795759928335s" repeatCount="indefinite"></animate>
  </rect>
</g><g transform="rotate(232.94117647058823 50 50)">
  <rect x="47.5" y="32.5" rx="2.5" ry="0.5" width="5" height="1" fill="#cacaca">
    <animate attributeName="opacity" values="1;0" keyTimes="0;1" dur="0.5076142131979695s" begin="-0.1492982979994028s" repeatCount="indefinite"></animate>
  </rect>
</g><g transform="rotate(254.11764705882354 50 50)">
  <rect x="47.5" y="32.5" rx="2.5" ry="0.5" width="5" height="1" fill="#cacaca">
    <animate attributeName="opacity" values="1;0" keyTimes="0;1" dur="0.5076142131979695s" begin="-0.11943863839952223s" repeatCount="indefinite"></animate>
  </rect>
</g><g transform="rotate(275.29411764705884 50 50)">
  <rect x="47.5" y="32.5" rx="2.5" ry="0.5" width="5" height="1" fill="#cacaca">
    <animate attributeName="opacity" values="1;0" keyTimes="0;1" dur="0.5076142131979695s" begin="-0.08957897879964168s" repeatCount="indefinite"></animate>
  </rect>
</g><g transform="rotate(296.47058823529414 50 50)">
  <rect x="47.5" y="32.5" rx="2.5" ry="0.5" width="5" height="1" fill="#cacaca">
    <animate attributeName="opacity" values="1;0" keyTimes="0;1" dur="0.5076142131979695s" begin="-0.05971931919976112s" repeatCount="indefinite"></animate>
  </rect>
</g><g transform="rotate(317.6470588235294 50 50)">
  <rect x="47.5" y="32.5" rx="2.5" ry="0.5" width="5" height="1" fill="#cacaca">
    <animate attributeName="opacity" values="1;0" keyTimes="0;1" dur="0.5076142131979695s" begin="-0.02985965959988056s" repeatCount="indefinite"></animate>
  </rect>
</g><g transform="rotate(338.8235294117647 50 50)">
  <rect x="47.5" y="32.5" rx="2.5" ry="0.5" width="5" height="1" fill="#cacaca">
    <animate attributeName="opacity" values="1;0" keyTimes="0;1" dur="0.5076142131979695s" begin="0s" repeatCount="indefinite"></animate>
  </rect>
</g>
<!-- [ldio] generated by https://loading.io/ --></svg>