<svg xmlns="http://www.w3.org/2000/svg" viewBox="0 0 595.28 595.28">
  <g id="Laag_2" data-name="Laag 2">
    <rect width="595.28" height="595.28" rx="88.75" fill="#ddecfe"/>
    <g>
      <polygon points="277.06 415.83 336.36 570.4 395.05 508.02 481.71 513.25 414.72 343.3 277.06 415.83" fill="#fff"/>
      <polygon points="170.73 378.04 112.96 510.17 199.62 506.49 255.85 572.86 331.14 396.17 170.73 378.04" fill="#fafafd"/>
      <polygon points="277.06 524.65 278.33 415.83 321.77 419.16 277.06 524.65" fill="#f0f6fc"/>
      <polygon points="429.79 381.87 419.89 415.69 382.23 415.69 361.61 444.56 326.42 431.36 297.08 453.08 268.13 431.08 233.49 443.73 213.15 414.59 176.03 416.24 170.73 378.04 186.64 316.38 325.12 324.68 411.36 334.17 429.79 381.87" fill="#494949" opacity="0.5"/>
      <polygon points="187.85 66.82 204.07 34.38 240.09 40.98 265.66 15.13 297.08 32.73 330.54 15.13 353.91 40.98 391.02 33.28 407.52 66.82 444.63 69.57 450.13 105.31 483.95 120.16 480.1 156.17 507.32 180.37 493.3 213.91 512.82 245.25 488.07 271.09 497.42 306.83 467.45 325.8 466.35 362.64 429.79 372.26 419.89 406.08 382.23 406.08 361.61 434.95 326.42 421.75 297.08 443.47 268.13 421.48 233.49 434.12 213.15 404.98 176.03 406.63 164.76 371.44 128.19 363.47 128.19 324.68 95.75 306.56 105.92 271.37 82 243.87 102.07 213.91 86.4 179.54 114.72 156.72 111.15 119.88 146.06 106.14 150.74 70.39 187.85 66.82" fill="#4a84fc"/>
      <path d="M425.2,114.67,157.9,332A172.47,172.47,0,1,0,425.2,114.67Z" fill="#ddecfe"/>
      <path d="M297.08,57.65A172.48,172.48,0,0,0,157.9,332L425.2,114.67A172,172,0,0,0,297.08,57.65Z" fill="#fafafd"/>
      <circle cx="297.08" cy="230.13" r="135.81" fill="#494949" opacity="0.2"/>
      <path d="M297.08,117a113.15,113.15,0,0,0-73.24,199.42L395,173.45A113.07,113.07,0,0,0,297.08,117Z" fill="#fafafd"/>
      <path d="M223.84,316.38A113.15,113.15,0,0,0,395,173.45Z" fill="#ddecfe"/>
    </g>
  </g>
</svg>
