<svg xmlns="http://www.w3.org/2000/svg" viewBox="0 0 595.28 595.28">
  <g id="Laag_5" data-name="Laag 5">
    <rect width="595.28" height="595.28" rx="88.75" fill="#ddecfe"/>
    <g>
      <g>
        <path d="M350.34,88.39H165.22a17,17,0,0,0-17,17V409.1a17,17,0,0,0,17,17H412a17,17,0,0,0,17-17V166.51a10,10,0,0,0-3-7.12L357.4,91.29A10,10,0,0,0,350.34,88.39Z" fill="#fff"/>
        <path d="M354.47,153.9a8.46,8.46,0,0,0,8.44,8.43h62.56a1.46,1.46,0,0,0,1-2.49L357,90.85a1.46,1.46,0,0,0-2.49,1Z" fill="#4a84fc"/>
        <line x1="188.41" y1="196.04" x2="354.47" y2="196.04" fill="none" stroke="#4a84fc" stroke-miterlimit="10" stroke-width="1.74"/>
        <line x1="188.41" y1="229.75" x2="354.47" y2="229.75" fill="none" stroke="#4a84fc" stroke-miterlimit="10" stroke-width="1.74"/>
        <line x1="188.41" y1="263.45" x2="354.47" y2="263.45" fill="none" stroke="#4a84fc" stroke-miterlimit="10" stroke-width="1.74"/>
      </g>
      <g>
        <path d="M289.09,393.94c3-38.62,30.27-49.85,35.72-51.72-11.1-.59-24.1,3.35-38.45,16-46,40.69-24.17,104.07,11.2,131.49a326.8,326.8,0,0,0,36.76,24.66C303.18,480.42,285.84,435.46,289.09,393.94Z" fill="#4a84fc"/>
        <path d="M442.62,358.27c-46-40.69-78.13,8.55-78.13,8.55s-15.21-23.31-39.68-24.6c-5.45,1.87-32.69,13.1-35.72,51.72-3.25,41.52,14.09,86.48,45.23,120.48a249.74,249.74,0,0,0,30.17,15.14s31.55-12.38,66.93-39.8S488.61,399,442.62,358.27Z" fill="#f0f6fc"/>
      </g>
    </g>
  </g>
</svg>
