<svg xmlns="http://www.w3.org/2000/svg" viewBox="0 0 595.28 595.28">
  <g id="Laag_4" data-name="Laag 4">
    <g>
      <path d="M138.34,205.18c6.7-85.63,67.13-110.54,79.2-114.69-24.61-1.3-53.44,7.44-85.26,35.59-102,90.23-53.61,230.79,24.84,291.6a727.76,727.76,0,0,0,81.5,54.68C169.57,397,131.13,297.26,138.34,205.18Z" fill="#4a84fc"/>
      <path d="M478.79,126.08c-102-90.22-173.26,19-173.26,19s-33.73-51.68-88-54.55c-12.07,4.15-72.5,29.06-79.2,114.69C131.13,297.26,169.57,397,238.62,472.36c39.61,22.86,66.91,33.58,66.91,33.58s70-27.46,148.42-88.26S580.78,216.31,478.79,126.08Z" fill="#ddecfe"/>
    </g>
  </g>
</svg>
